<?xml version="1.0" standalone="no"?>
<!DOCTYPE svg PUBLIC "-//W3C//DTD SVG 20010904//EN"
 "http://www.w3.org/TR/2001/REC-SVG-20010904/DTD/svg10.dtd">
<svg version="1.0" xmlns="http://www.w3.org/2000/svg"
 viewBox="0 0 2600.000000 2600.000000"
 preserveAspectRatio="xMidYMid meet">
<metadata>
Created by potrace 1.15, written by Peter Selinger 2001-2017
</metadata>
<g transform="translate(0.000000,2600.000000) scale(0.100000,-0.100000)"
fill="#000000" stroke="none">
<path d="M7170 21574 c-191 -50 -354 -199 -414 -377 -41 -123 -41 -252 0 -374
9 -27 784 -1715 1722 -3753 938 -2038 1706 -3716 1706 -3730 0 -14 -768 -1693
-1706 -3731 -939 -2039 -1713 -3727 -1722 -3753 -42 -125 -41 -255 4 -383 62
-176 228 -324 411 -368 57 -13 684 -15 5439 -15 4770 0 5383 2 5435 15 170 43
312 156 383 306 22 46 45 108 51 137 16 76 14 194 -5 266 -9 33 -788 1739
-1732 3791 l-1715 3729 15 41 c8 22 775 1689 1703 3705 928 2016 1699 3697
1713 3735 30 84 40 216 23 308 -38 198 -183 362 -388 440 l-58 22 -5405 2
c-4689 1 -5412 0 -5460 -13z m9817 -1171 c-3 -10 -709 -1548 -1570 -3418 -861
-1870 -1576 -3432 -1589 -3470 -19 -57 -23 -90 -22 -180 1 -101 4 -118 36
-205 20 -52 738 -1620 1596 -3485 l1561 -3390 -4386 -3 c-2413 -1 -4388 0
-4390 1 -2 2 701 1536 1563 3408 861 1872 1580 3442 1597 3489 26 73 30 99 30
185 1 68 -5 119 -17 160 -10 33 -714 1572 -1563 3420 -850 1848 -1561 3393
-1579 3433 l-33 72 4386 0 c4172 0 4385 -1 4380 -17z"/>
<path d="M10549 17518 c16 -35 260 -568 544 -1184 507 -1102 521 -1135 822
-1885 l305 -764 0 -2087 0 -2088 -757 -2 -758 -3 -622 -1354 c-343 -744 -623
-1357 -623 -1362 0 -5 1367 -9 3150 -9 1733 0 3150 2 3150 5 0 3 -281 616
-624 1363 l-624 1357 -756 3 -756 2 0 2093 0 2092 309 770 c305 761 314 783
841 1925 293 635 534 1163 537 1173 5 16 -99 17 -2080 17 l-2086 0 28 -62z"/>
</g>
</svg>
